<svg id="Layer_1" data-name="Layer 1" xmlns="http://www.w3.org/2000/svg" viewBox="0 0 128 128"><title>STAR</title><path d="M123.164,50.549a1.748,1.748,0,0,0-1.412-1.191L82.931,43.717,65.569,8.54a1.75,1.75,0,0,0-3.139,0L45.069,43.717,6.249,49.358a1.75,1.75,0,0,0-.97,2.985L33.37,79.726,26.738,118.39a1.75,1.75,0,0,0,2.539,1.845L64,101.98l34.723,18.254a1.75,1.75,0,0,0,2.539-1.845L94.63,79.726l28.092-27.382A1.75,1.75,0,0,0,123.164,50.549ZM91.528,77.862a1.749,1.749,0,0,0-.5,1.549l6.188,36.076-32.4-17.032a1.749,1.749,0,0,0-1.629,0l-32.4,17.032,6.187-36.076a1.749,1.749,0,0,0-.5-1.549L10.261,52.312l36.222-5.263a1.75,1.75,0,0,0,1.318-.958L64,13.269,80.2,46.091a1.751,1.751,0,0,0,1.317.958l36.223,5.263Z"/><path d="M78.776,50.945a1.75,1.75,0,0,0,1.479,1.983l21.885,3.18a1.8,1.8,0,0,0,.254.018,1.75,1.75,0,0,0,.25-3.482L80.76,49.465A1.744,1.744,0,0,0,78.776,50.945Z"/></svg>